HIERARCHY
ROOT Hips
{
	OFFSET 0.00000 0.00000 0.00000
	CHANNELS 6 Xposition Yposition Zposition Zrotation Yrotation Xrotation 
	JOINT LHipJoint
	{
		OFFSET 0 0 0
		CHANNELS 3 Zrotation Yrotation Xrotation
		JOINT LeftUpLeg
		{
			OFFSET 1.37590 -1.78394 0.89329
			CHANNELS 3 Zrotation Yrotation Xrotation
			JOINT LeftLeg
			{
				OFFSET 2.47928 -6.81178 0.00000
				CHANNELS 3 Zrotation Yrotation Xrotation
				JOINT LeftFoot
				{
					OFFSET 2.63345 -7.23535 0.00000
					CHANNELS 3 Zrotation Yrotation Xrotation
					JOINT LeftToeBase
					{
						OFFSET 0.23938 -0.65768 2.27012
						CHANNELS 3 Zrotation Yrotation Xrotation
						End Site
						{
							OFFSET 0.00000 -0.00000 1.18363
						}
					}
				}
			}
		}
	}
	JOINT RHipJoint
	{
		OFFSET 0 0 0
		CHANNELS 3 Zrotation Yrotation Xrotation
		JOINT RightUpLeg
		{
			OFFSET -1.33617 -1.78394 0.89329
			CHANNELS 3 Zrotation Yrotation Xrotation
			JOINT RightLeg
			{
				OFFSET -2.56922 -7.05888 0.00000
				CHANNELS 3 Zrotation Yrotation Xrotation
				JOINT RightFoot
				{
					OFFSET -2.56568 -7.04915 0.00000
					CHANNELS 3 Zrotation Yrotation Xrotation
					JOINT RightToeBase
					{
						OFFSET -0.27533 -0.75646 2.18105
						CHANNELS 3 Zrotation Yrotation Xrotation
						End Site
						{
							OFFSET -0.00000 -0.00000 1.15233
						}
					}
				}
			}
		}
	}
	JOINT LowerBack
	{
		OFFSET 0 0 0
		CHANNELS 3 Zrotation Yrotation Xrotation
		JOINT Spine
		{
			OFFSET 0.06190 2.15152 -0.00935
			CHANNELS 3 Zrotation Yrotation Xrotation
			JOINT Spine1
			{
				OFFSET 0.06334 2.15332 0.00872
				CHANNELS 3 Zrotation Yrotation Xrotation
				JOINT Neck
				{
					OFFSET 0 0 0
					CHANNELS 3 Zrotation Yrotation Xrotation
					JOINT Neck1
					{
						OFFSET -0.04202 1.66908 0.23524
						CHANNELS 3 Zrotation Yrotation Xrotation
						JOINT Head
						{
							OFFSET 0.07510 1.69357 -0.24440
							CHANNELS 3 Zrotation Yrotation Xrotation
							End Site
							{
								OFFSET 0.02556 1.71719 -0.11000
							}
						}
					}
				}
				JOINT LeftShoulder
				{
					OFFSET 0 0 0
					CHANNELS 3 Zrotation Yrotation Xrotation
					JOINT LeftArm
					{
						OFFSET 3.67168 1.26306 -0.41342
						CHANNELS 3 Zrotation Yrotation Xrotation
						JOINT LeftForeArm
						{
							OFFSET 4.68510 -0.00000 -0.00000
							CHANNELS 3 Zrotation Yrotation Xrotation
							JOINT LeftHand
							{
								OFFSET 3.39626 -0.00000 -0.00000
								CHANNELS 3 Zrotation Yrotation Xrotation
								JOINT LeftFingerBase
								{
									OFFSET 0 0 0
									CHANNELS 3 Zrotation Yrotation Xrotation
									JOINT LeftHandIndex1
									{
										OFFSET 0.48608 -0.00000 -0.00000
										CHANNELS 3 Zrotation Yrotation Xrotation
										End Site
										{
											OFFSET 0.39189 -0.00000 -0.00000
										}
									}
								}
								JOINT LThumb
								{
									OFFSET 0 0 0
									CHANNELS 3 Zrotation Yrotation Xrotation
									End Site
									{
										OFFSET 0.39787 -0.00000 0.39787
									}
								}
							}
						}
					}
				}
				JOINT RightShoulder
				{
					OFFSET 0 0 0
					CHANNELS 3 Zrotation Yrotation Xrotation
					JOINT RightArm
					{
						OFFSET -3.04136 1.42992 -0.76390
						CHANNELS 3 Zrotation Yrotation Xrotation
						JOINT RightForeArm
						{
							OFFSET -5.55576 -0.00000 -0.00000
							CHANNELS 3 Zrotation Yrotation Xrotation
							JOINT RightHand
							{
								OFFSET -3.32774 -0.00000 -0.00000
								CHANNELS 3 Zrotation Yrotation Xrotation
								JOINT RightFingerBase
								{
									OFFSET 0 0 0
									CHANNELS 3 Zrotation Yrotation Xrotation
									JOINT RightHandIndex1
									{
										OFFSET -0.50763 -0.00000 -0.00000
										CHANNELS 3 Zrotation Yrotation Xrotation
										End Site
										{
											OFFSET -0.40926 -0.00000 -0.00000
										}
									}
								}
								JOINT RThumb
								{
									OFFSET 0 0 0
									CHANNELS 3 Zrotation Yrotation Xrotation
									End Site
									{
										OFFSET -0.41551 -0.00000 0.41551
									}
								}
							}
						}
					}
				}
			}
		}
	}
}
MOTION
Frames: 7
Frame Time: 0.0350877
0.00 0.00 0.00 -456.5790 -82.3931 459.7720 0.0000 0.0000 0.0000 -9.1455 -7.1765 -21.2490 8.8088 16.6831 55.4264 -0.2940 -9.7754 1.4102 0.3833 -3.9761 -11.0094 0.0000 0.0000 0.0000 28.4017 6.9939 -15.8178 -1.4901 -7.7117 21.8417 -0.1757 -4.3244 -10.7040 -0.6775 -5.2632 14.6608 20.2330 23.1432 28.7296 14.4433 39.0394 10.4350 174.3687 64.4550 1.8130 16.9932 29.6689 27.7703 -51.4196 78.6458 -45.4768 -15.1150 63.9320 117.9730 -0.0000 0.0000 0.0000 95.9564 -32.3325 51.2459 60.4002 -56.4156 -34.6743 -0.0000 0.0000 -52.3532 16.8605 55.9796 14.1008 -7.1250 0.0000 -0.0000 -78.8501 78.1037 -66.6933 -0.0000 0.0000 0.0000 -104.3377 44.2740 45.7346 -148.0859 42.4786 -107.3172 0.0000 -0.0000 -61.1995 -19.8109 -56.3439 16.6916 7.1250 -0.0000 -0.0000 81.4572 -79.2030 -70.4395
0.00 0.00 0.00 -479.5390 -78.9163 484.7470 0.0000 0.0000 0.0000 -1.7648 -2.5982 -33.5145 2.6895 10.1746 29.5439 0.0647 4.9108 -8.8688 0.4622 -4.3609 -12.0942 0.0000 0.0000 0.0000 31.2998 1.7887 -7.6193 -1.3823 -7.4394 21.0238 -0.8218 -3.9012 -18.9690 -0.0009 -0.1918 0.5270 21.6286 24.2396 31.1275 16.0296 41.8131 11.5232 173.4394 69.8750 1.2670 19.2163 29.6185 27.2025 -51.1476 79.6309 -44.3543 -0.5020 52.3520 131.1780 -0.0000 0.0000 0.0000 109.8615 -63.0792 31.4001 86.3730 -59.9502 -56.8595 -0.0000 0.0000 -52.1634 13.2990 53.1409 10.7095 -7.1250 0.0000 -0.0000 -66.8279 76.2690 -53.3001 -0.0000 0.0000 0.0000 -105.1310 20.8957 50.7844 -138.1092 49.1511 -100.1421 0.0000 -0.0000 -60.6898 -15.0060 -56.1938 12.5570 7.1250 -0.0000 -0.0000 79.6562 -77.4214 -66.7377
0.00 0.00 0.00 -489.6150 -77.1534 496.0510 0.0000 0.0000 0.0000 0.3945 -2.6666 -33.2075 1.3300 7.3031 20.6166 -0.1871 9.3240 -9.1057 0.3618 -3.8640 -10.6943 0.0000 0.0000 0.0000 30.9013 1.4597 -5.4378 -1.3501 -7.3557 20.7736 -1.0081 -3.0041 -20.2736 -0.0204 0.9226 -2.5359 19.9972 25.4652 30.3327 15.3768 42.2157 11.4806 174.3006 68.8310 1.7940 19.0346 29.0934 26.6504 -48.5380 79.5869 -41.9520 0.0690 52.0420 132.5120 -0.0000 -0.0000 0.0000 136.1880 -70.1865 -3.0711 91.8757 -59.9867 -61.6243 -0.0000 0.0000 -51.0101 12.6867 53.1235 10.2082 -7.1250 0.0000 -0.0000 -67.0002 76.0280 -53.1981 -0.0000 -0.0000 0.0000 -103.9059 20.7961 51.3880 -129.0946 53.3542 -93.1011 0.0000 -0.0000 -61.0040 -14.0622 -55.4604 11.6583 7.1250 -0.0000 -0.0000 76.3835 -77.0162 -63.1101
0.00 0.00 0.00 -497.0330 -75.8594 504.3990 0.0000 0.0000 0.0000 1.8957 -4.9798 -31.7187 0.7344 5.4749 15.2683 -0.5577 13.5872 -8.9283 0.2344 -3.1162 -8.6024 0.0000 0.0000 0.0000 29.5949 1.4037 -3.3101 -1.4729 -7.6691 21.7133 -1.0447 -2.9193 -20.5665 -0.0782 1.8042 -4.9649 17.7508 26.4865 29.0561 14.4158 42.3198 11.3602 175.4374 66.9740 2.5230 18.5855 28.4997 26.1299 -45.2259 79.2582 -38.9624 -0.8730 53.5630 132.6840 0.0000 -0.0000 0.0000 165.8976 -69.8841 -41.4276 90.0358 -60.0000 -60.0310 -0.0000 0.0000 -52.0500 12.4533 52.9845 10.0004 -7.1250 0.0000 -0.0000 -66.5565 75.8980 -52.6518 0.0000 -0.0000 0.0000 -102.3002 21.9128 52.3562 -117.1102 57.0321 -83.2442 0.0000 -0.0000 -61.3905 -13.5256 -55.2566 11.1812 7.1250 -0.0000 -0.0000 75.5526 -76.7909 -62.0621
0.00 0.00 0.00 -500.8340 -75.9315 508.4460 0.0000 0.0000 0.0000 1.2035 -7.7936 -30.3075 0.6634 5.2090 14.5056 -0.7065 14.8069 -7.5029 0.1217 -2.2492 -6.1950 0.0000 0.0000 0.0000 27.7044 1.6335 -1.9118 -1.9688 -8.8008 25.1741 -0.7618 -5.0237 -19.0625 -0.1883 2.7944 -7.7068 15.4288 26.8502 27.7570 13.4351 42.0593 11.2700 176.4686 64.3270 3.2150 17.9381 28.0878 25.8354 -42.7961 78.8471 -36.8983 -3.3970 56.6260 131.3060 -0.0000 0.0000 0.0000 177.9313 -67.0641 -60.2287 86.4035 -59.9511 -56.8859 -0.0000 0.0000 -53.8183 12.2692 52.0394 9.7295 -7.1250 0.0000 -0.0000 -63.0772 75.5191 -49.1021 -0.0000 0.0000 0.0000 -100.5606 23.3516 53.6109 -101.7626 59.4707 -70.1686 0.0000 -0.0000 -61.8232 -14.9820 -56.1571 12.5315 7.1250 -0.0000 -0.0000 79.4863 -77.4110 -66.5598
0.00 0.00 0.00 -500.0260 -78.0284 507.1130 0.0000 0.0000 0.0000 -2.2542 -9.7636 -29.1574 0.9356 6.1613 17.2532 -0.4196 11.4103 -4.9217 0.0536 -1.4941 -4.1094 0.0000 0.0000 0.0000 25.8369 2.0147 -2.1437 -3.1068 -10.8660 31.8294 -0.0585 -9.7379 -14.8104 -0.2419 3.1653 -8.7393 13.2415 26.3054 26.8394 12.6383 41.5052 11.3770 177.2678 60.9310 3.8490 17.2047 28.0487 25.9293 -42.3074 78.5256 -36.7246 -8.0280 60.7290 127.4290 0.0000 -0.0000 0.0000 175.6246 -66.8528 -61.7797 86.2387 -59.9465 -56.7432 -0.0000 0.0000 -55.3723 12.2030 51.4225 9.5961 -7.1250 0.0000 -0.0000 -60.8836 75.2625 -46.8857 0.0000 -0.0000 0.0000 -98.7057 25.0621 54.9313 -84.9146 59.9021 -55.5974 0.0000 -0.0000 -62.2517 -18.8170 -58.2416 16.1583 7.1250 -0.0000 -0.0000 90.6734 -78.6208 -79.0772
0.00 0.00 0.00 -472.1900 -84.0919 477.6040 0.0000 0.0000 0.0000 -10.1068 -12.7376 -24.6167 1.5200 7.7851 22.0632 -0.0200 2.9131 -2.6416 0.0001 0.0771 0.2119 0.0000 0.0000 0.0000 23.3837 1.5496 -7.7011 -6.2635 -14.6789 46.0302 0.7908 -15.5243 -5.2687 -0.0094 0.6261 -1.7206 10.3260 23.9313 26.3666 11.7865 40.2609 11.9044 178.0629 55.0120 4.7170 16.1622 28.8412 26.8105 -45.9140 78.3841 -40.5965 -20.2560 66.7670 115.0890 0.0000 -0.0000 0.0000 145.9733 -69.0894 -32.5183 96.5808 -59.8357 -65.6960 -0.0000 0.0000 -56.2758 12.6215 52.1217 10.0232 -7.1250 0.0000 -0.0000 -63.1976 75.6836 -49.3845 0.0000 -0.0000 0.0000 -95.6614 30.0088 57.1048 -66.8848 57.8816 -40.1240 0.0000 -0.0000 -64.2290 -27.9429 -62.4302 25.1829 7.1250 -0.0000 -0.0000 112.3930 79.6776 122.3956
